<?xml version="1.0" encoding="UTF-8" standalone="no"?>
<!-- Created with Inkscape (http://www.inkscape.org/) -->

<svg
   width="280mm"
   height="230mm"
   viewBox="0 0 280 230"
   version="1.1"
   id="svg1"
   inkscape:version="1.3.2 (9e3d6414e7, 2024-01-14, custom)"
   sodipodi:docname="coming.svg"
   xmlns:inkscape="http://www.inkscape.org/namespaces/inkscape"
   xmlns:sodipodi="http://sodipodi.sourceforge.net/DTD/sodipodi-0.dtd"
   xmlns="http://www.w3.org/2000/svg"
   xmlns:svg="http://www.w3.org/2000/svg">
  <sodipodi:namedview
     id="namedview1"
     pagecolor="#ffffff"
     bordercolor="#111111"
     borderopacity="1"
     inkscape:showpageshadow="0"
     inkscape:pageopacity="0"
     inkscape:pagecheckerboard="1"
     inkscape:deskcolor="#d1d1d1"
     inkscape:document-units="mm"
     inkscape:zoom="0.48640572"
     inkscape:cx="528.3655"
     inkscape:cy="511.91832"
     inkscape:window-width="1920"
     inkscape:window-height="1011"
     inkscape:window-x="0"
     inkscape:window-y="32"
     inkscape:window-maximized="1"
     inkscape:current-layer="layer1"
     showgrid="false" />
  <defs
     id="defs1" />
  <g
     inkscape:label="Layer 1"
     inkscape:groupmode="layer"
     id="layer1">
    <text
       xml:space="preserve"
       style="font-weight:bold;font-size:42.3333px;line-height:1;font-family:Arial;-inkscape-font-specification:'Arial, Bold';text-align:center;letter-spacing:0px;word-spacing:0px;text-anchor:middle;fill:#000000;stroke-width:0.15;stroke-linecap:square;stroke-miterlimit:9.92;paint-order:stroke markers fill"
       x="140.42375"
       y="161.04692"
       id="text1"><tspan
         sodipodi:role="line"
         id="tspan1"
         style="font-size:42.3333px;stroke-width:0.15"
         x="140.42375"
         y="161.04692"><tspan
   style="fill:#ef0031;fill-opacity:1"
   id="tspan3">Coming</tspan> <tspan
   style="fill:#00adef;fill-opacity:1"
   id="tspan2">Soon</tspan></tspan></text>
    <text
       xml:space="preserve"
       style="font-weight:bold;font-size:14.1111px;line-height:1;font-family:Arial;-inkscape-font-specification:'Arial, Bold';text-align:center;letter-spacing:0px;word-spacing:0px;text-anchor:middle;fill:#ef0031;fill-opacity:1;stroke-width:0.15;stroke-linecap:square;stroke-miterlimit:9.92;paint-order:stroke markers fill"
       x="140.58566"
       y="194.70987"
       id="text4"><tspan
         sodipodi:role="line"
         id="tspan4"
         style="font-size:14.1111px;fill:#000000;fill-opacity:1;stroke-width:0.15"
         x="140.58566"
         y="194.70987">Our cancer clustering app </tspan><tspan
         sodipodi:role="line"
         style="font-size:14.1111px;fill:#000000;fill-opacity:1;stroke-width:0.15"
         x="140.58566"
         y="208.82097"
         id="tspan5">will be live for public access </tspan><tspan
         sodipodi:role="line"
         style="font-size:14.1111px;fill:#000000;fill-opacity:1;stroke-width:0.15"
         x="140.58566"
         y="222.93207"
         id="tspan6">following publication! Stay tuned!</tspan></text>
    <g
       id="g30"
       transform="matrix(0.32506273,0,0,0.32506273,13.692004,25.128719)">
      <path
         class="cls-1"
         d="M 44.27,134.4 H 23.31 c -2.06,0 -3.98,-1.11 -5,-2.89 L 7.83,113.35 c -1.03,-1.78 -1.03,-4 0,-5.78 L 18.31,89.41 c 1.03,-1.78 2.95,-2.89 5,-2.89 h 20.96 c 2.06,0 3.98,1.11 5.01,2.89 l 10.48,18.16 c 1.03,1.78 1.03,4 0,5.78 l -10.48,18.16 c -1.03,1.78 -2.95,2.89 -5.01,2.89"
         id="path1"
         style="fill:#ff3131" />
      <path
         class="cls-2"
         d="M 90.62,83.03 H 55.66 c -3.43,0 -6.63,-1.85 -8.34,-4.82 L 29.84,47.94 c -1.72,-2.97 -1.72,-6.67 0,-9.64 L 47.32,8.03 c 1.72,-2.97 4.91,-4.82 8.34,-4.82 h 34.96 c 3.43,0 6.63,1.85 8.35,4.82 l 17.48,30.27 c 1.72,2.97 1.72,6.67 0,9.64 L 98.97,78.21 c -1.72,2.97 -4.91,4.82 -8.35,4.82"
         id="path2"
         style="fill:#009ee2" />
      <path
         class="cls-1"
         d="m 147.2,102.88 c 7.74,3.96 19.63,7.93 31.9,7.93 13.21,0 20.2,-5.48 20.2,-13.78 0,-8.3 -6.04,-12.46 -21.33,-17.93 -21.14,-7.37 -34.92,-19.07 -34.92,-37.57 0,-21.71 18.12,-38.32 48.14,-38.32 14.35,0 24.92,3.02 32.47,6.42 l -6.42,23.22 c -5.1,-2.45 -14.16,-6.04 -26.62,-6.04 -12.46,0 -18.5,5.66 -18.5,12.27 0,8.12 7.17,11.7 23.6,17.93 22.46,8.31 33.03,20.01 33.03,37.94 0,21.33 -16.42,39.45 -51.34,39.45 -14.53,0 -28.88,-3.77 -36.05,-7.74 l 5.85,-23.79 z"
         id="path3"
         style="fill:#ff3131" />
      <path
         class="cls-1"
         d="m 330.12,102.88 c 0,12.08 0.38,21.9 0.75,29.64 h -24.92 l -1.32,-13.03 h -0.56 c -3.59,5.66 -12.27,15.1 -28.88,15.1 -18.69,0 -32.47,-11.7 -32.47,-40.21 V 40.2 h 28.88 v 49.64 c 0,13.41 4.34,21.52 14.35,21.52 7.93,0 12.46,-5.47 14.35,-10 0.75,-1.7 0.94,-3.96 0.94,-6.23 V 40.2 h 28.89 v 62.67 z"
         id="path4"
         style="fill:#ff3131" />
      <path
         class="cls-1"
         d="m 349.04,70.6 c 0,-13.59 -0.38,-22.46 -0.76,-30.39 h 24.73 l 0.94,16.99 h 0.76 c 4.72,-13.4 16.04,-19.06 24.91,-19.06 2.65,0 3.97,0 6.04,0.38 v 26.99 c -2.07,-0.38 -4.53,-0.75 -7.74,-0.75 -10.57,0 -17.75,5.66 -19.63,14.53 -0.38,1.89 -0.57,4.15 -0.57,6.42 v 46.81 H 349.03 V 70.6 Z"
         id="path5"
         style="fill:#ff3131" />
      <path
         class="cls-1"
         d="m 449.58,40.21 12.46,42.85 c 2.26,7.74 3.96,15.1 5.28,22.46 h 0.56 c 1.51,-7.55 3.02,-14.53 5.1,-22.46 l 11.89,-42.85 h 30.2 l -34.35,92.31 h -28.69 l -33.6,-92.31 z"
         id="path6"
         style="fill:#ff3131" />
      <path
         class="cls-2"
         d="m 530.17,102.88 c 7.74,3.96 19.63,7.93 31.9,7.93 13.21,0 20.2,-5.48 20.2,-13.78 0,-8.3 -6.04,-12.46 -21.33,-17.93 -21.14,-7.37 -34.92,-19.07 -34.92,-37.57 0,-21.71 18.12,-38.32 48.14,-38.32 14.34,0 24.91,3.02 32.46,6.42 l -6.42,23.22 c -5.1,-2.45 -14.16,-6.04 -26.62,-6.04 -12.46,0 -18.5,5.66 -18.5,12.27 0,8.12 7.17,11.7 23.59,17.93 22.46,8.31 33.04,20.01 33.04,37.94 0,21.33 -16.42,39.45 -51.35,39.45 -14.53,0 -28.88,-3.77 -36.05,-7.74 l 5.85,-23.79 z"
         id="path7"
         style="fill:#009ee2" />
      <rect
         class="cls-2"
         x="630.21002"
         y="40.209999"
         width="28.690001"
         height="92.309998"
         id="rect7"
         style="fill:#009ee2" />
      <rect
         class="cls-2"
         x="630.21002"
         width="28.690001"
         height="27"
         id="rect8"
         style="fill:#009ee2"
         y="0" />
      <path
         class="cls-2"
         d="m 770.08,40.21 c -0.38,5.85 -0.76,13.59 -0.76,27.37 v 51.53 c 0,17.74 -3.59,32.28 -13.97,41.53 -10.19,8.68 -23.97,11.32 -37.56,11.32 -12.08,0 -24.91,-2.45 -33.22,-7.17 l 5.66,-21.71 c 5.85,3.4 16.05,6.99 26.81,6.99 13.59,0 23.97,-7.36 23.97,-24.35 v -6.04 h -0.38 c -5.47,7.74 -14.35,12.08 -24.92,12.08 -22.84,0 -39.07,-18.5 -39.07,-45.11 0,-29.64 19.25,-48.51 41.91,-48.51 12.65,0 20.58,5.47 25.29,13.02 h 0.38 l 0.94,-10.95 z m -29.45,37.56 c 0,-1.89 -0.19,-3.77 -0.56,-5.28 -2.08,-7.55 -7.55,-12.65 -15.48,-12.65 -10.38,0 -18.88,9.44 -18.88,26.24 0,13.78 6.8,24.54 18.88,24.54 7.36,0 13.21,-4.91 15.1,-11.7 0.76,-2.08 0.94,-5.1 0.94,-7.55 V 77.78 Z"
         id="path8"
         style="fill:#009ee2" />
      <path
         class="cls-2"
         d="m 286.73,204.77 -30.74,-17.74 c -1.72,-0.99 -3.64,-1.49 -5.56,-1.49 -1.92,0 -3.84,0.5 -5.56,1.49 l -30.74,17.74 c -3.44,1.99 -5.56,5.66 -5.56,9.63 v 35.5 c 0,3.97 2.12,7.64 5.56,9.63 l 30.74,17.75 c 1.72,0.99 3.64,1.49 5.56,1.49 1.92,0 3.84,-0.5 5.56,-1.49 l 30.74,-17.75 c 3.44,-1.99 5.56,-5.66 5.56,-9.63 v -35.5 c 0,-3.97 -2.12,-7.64 -5.56,-9.63 m 2.87,9.63 v 3.77 c -0.43,-0.67 -0.91,-1.3 -1.48,-1.88 l -18.02,-18.02 15.29,8.83 c 2.6,1.5 4.21,4.3 4.21,7.3 m -15.16,47.72 -4.59,1.23 c 1.22,-0.9 2.27,-2.04 3.06,-3.4 l 12.09,-20.94 -4.6,17.14 c -0.77,2.9 -3.06,5.18 -5.96,5.96 m -37.96,5.82 -3.36,-3.36 c 1.39,0.61 2.9,0.95 4.47,0.95 h 24.18 l -17.15,4.6 c -0.71,0.19 -1.45,0.29 -2.18,0.29 -2.25,0 -4.37,-0.88 -5.96,-2.47 m -10.06,-65.77 4.6,-1.23 c -1.22,0.9 -2.27,2.04 -3.06,3.4 l -12.09,20.94 4.59,-17.14 c 0.78,-2.9 3.06,-5.18 5.96,-5.96 m 37.96,-5.82 3.36,3.36 c -1.39,-0.61 -2.9,-0.95 -4.47,-0.95 h -24.18 l 17.15,-4.59 c 0.71,-0.19 1.44,-0.29 2.18,-0.29 2.25,0 4.37,0.88 5.96,2.47 m -1.1,65.11 h -25.69 c -2.52,0 -4.87,-1.36 -6.13,-3.54 l -12.84,-22.25 c -1.26,-2.19 -1.26,-4.9 0,-7.08 l 12.84,-22.25 c 1.26,-2.18 3.61,-3.54 6.13,-3.54 h 25.69 c 2.52,0 4.87,1.36 6.13,3.54 l 12.85,22.25 c 1.26,2.19 1.26,4.9 0,7.08 l -12.85,22.25 c -1.26,2.18 -3.61,3.54 -6.13,3.54 M 213.7,233.36 c 0.17,1.51 0.63,2.99 1.41,4.35 l 12.09,20.94 -12.55,-12.55 c -2.12,-2.12 -2.96,-5.24 -2.18,-8.14 z m 73.46,-2.43 c -0.17,-1.51 -0.63,-2.99 -1.41,-4.35 l -12.09,-20.94 12.55,12.55 c 2.13,2.12 2.96,5.24 2.18,8.14 z m -40.94,-41.58 c 1.28,-0.74 2.74,-1.13 4.22,-1.13 1.48,0 2.93,0.39 4.21,1.13 l 3.27,1.89 c -0.79,0.04 -1.58,0.14 -2.37,0.35 l -24.61,6.59 15.29,-8.83 z m -30.74,17.75 3.27,-1.88 c -0.37,0.7 -0.68,1.44 -0.89,2.22 l -6.6,24.61 V 214.4 c 0,-3 1.62,-5.8 4.22,-7.3 m -4.21,42.79 v -3.77 c 0.43,0.67 0.91,1.3 1.49,1.88 l 18.02,18.02 -15.29,-8.83 c -2.6,-1.5 -4.22,-4.3 -4.22,-7.3 m 43.38,25.05 c -1.28,0.74 -2.74,1.13 -4.21,1.13 -1.47,0 -2.94,-0.39 -4.22,-1.13 l -3.26,-1.89 c 0.79,-0.03 1.58,-0.14 2.37,-0.35 l 24.61,-6.59 z m 30.73,-17.75 -3.27,1.89 c 0.36,-0.7 0.67,-1.44 0.88,-2.22 l 6.6,-24.61 v 17.65 c 0,3 -1.61,5.8 -4.21,7.3"
         id="path9"
         style="fill:#009ee2" />
      <polygon
         class="cls-2"
         points="323.21,246.01 313.22,246.01 313.22,196.17 323.21,196.17 323.21,217.16 343.21,217.16 343.21,196.17 353.21,196.17 353.21,246.01 343.21,246.01 343.21,225.02 323.21,225.02 "
         id="polygon9"
         style="fill:#009ee2" />
      <polygon
         class="cls-2"
         points="438.59,246.01 409.03,246.01 409.03,196.17 438.45,196.17 438.45,204.02 419.03,204.02 419.03,217.16 436.33,217.16 436.33,225.02 419.03,225.02 419.03,238.15 438.59,238.15 "
         id="polygon10"
         style="fill:#009ee2" />
      <polygon
         class="cls-2"
         points="475.66,234.09 475.79,234.09 487.65,196.31 503.65,196.31 503.65,246.15 494.07,246.15 494.07,205.02 493.94,205.02 480.51,246.15 470.94,246.15 457.51,205.02 457.37,205.17 457.37,246.15 447.8,246.15 447.8,196.31 463.8,196.31 "
         id="polygon11"
         style="fill:#009ee2" />
      <polygon
         class="cls-2"
         points="540.56,233.94 540.7,233.94 552.55,196.17 568.55,196.17 568.55,246.01 558.98,246.01 558.98,204.88 558.84,204.88 545.41,246.01 535.84,246.01 522.42,204.88 522.28,205.02 522.28,246.01 512.71,246.01 512.71,196.17 528.7,196.17 "
         id="polygon12"
         style="fill:#009ee2" />
      <path
         class="cls-2"
         d="m 399.82,237.1 c -2.44,1.13 -6.82,1.91 -10.57,1.91 -10.64,0 -16.93,-7.64 -16.93,-17.78 0,-10.14 6.43,-18.07 16.71,-18.07 3.57,0 7,0.5 10.78,2.64 v -0.04 c 0,0 0,-8.64 0,-8.64 -3.49,-1.24 -7.49,-1.82 -10.57,-1.82 -16.93,0 -27.35,9.57 -27.35,26.63 0,17.06 11.21,24.92 27.35,24.92 3.52,0 7.15,-0.63 10.57,-1.4 v -8.37 z"
         id="path12"
         style="fill:#009ee2" />
      <polygon
         class="cls-2"
         points="321.49,274.33 319.25,274.33 319.25,259.46 313.22,259.46 313.22,257.46 327.52,257.46 327.52,259.46 321.49,259.46 "
         id="polygon13"
         style="fill:#009ee2" />
      <path
         class="cls-2"
         d="m 335.25,264 h -0.11 c -0.32,-0.08 -0.62,-0.13 -0.92,-0.16 -0.3,-0.03 -0.65,-0.05 -1.06,-0.05 -0.66,0 -1.29,0.14 -1.9,0.44 -0.61,0.29 -1.2,0.67 -1.77,1.13 v 8.99 h -2.13 v -12.66 h 2.13 v 1.87 c 0.85,-0.68 1.59,-1.16 2.24,-1.44 0.65,-0.28 1.31,-0.42 1.98,-0.42 0.37,0 0.64,0 0.81,0.03 0.16,0.02 0.41,0.06 0.75,0.11 v 2.19 z"
         id="path13"
         style="fill:#009ee2" />
      <path
         class="cls-2"
         d="m 346.68,274.34 h -2.12 v -1.35 c -0.19,0.13 -0.44,0.31 -0.77,0.54 -0.32,0.23 -0.63,0.41 -0.93,0.55 -0.36,0.17 -0.76,0.32 -1.23,0.44 -0.46,0.12 -1,0.17 -1.62,0.17 -1.14,0 -2.11,-0.38 -2.9,-1.13 -0.79,-0.75 -1.19,-1.72 -1.19,-2.89 0,-0.96 0.2,-1.74 0.62,-2.33 0.41,-0.59 1,-1.06 1.76,-1.4 0.77,-0.34 1.7,-0.57 2.78,-0.69 1.08,-0.12 2.24,-0.21 3.48,-0.27 v -0.33 c 0,-0.49 -0.09,-0.88 -0.25,-1.2 -0.17,-0.32 -0.41,-0.57 -0.73,-0.75 -0.3,-0.17 -0.67,-0.29 -1.09,-0.35 -0.42,-0.06 -0.86,-0.09 -1.32,-0.09 -0.56,0 -1.18,0.07 -1.87,0.22 -0.69,0.15 -1.4,0.36 -2.13,0.64 h -0.11 v -2.16 c 0.42,-0.11 1.02,-0.24 1.8,-0.37 0.79,-0.14 1.56,-0.2 2.32,-0.2 0.89,0 1.67,0.07 2.33,0.22 0.66,0.15 1.23,0.4 1.72,0.75 0.48,0.35 0.84,0.8 1.09,1.35 0.25,0.55 0.38,1.24 0.38,2.05 v 8.59 z m -2.12,-3.12 v -3.52 c -0.65,0.04 -1.42,0.09 -2.3,0.17 -0.88,0.08 -1.57,0.19 -2.09,0.33 -0.61,0.17 -1.11,0.44 -1.49,0.81 -0.38,0.37 -0.56,0.87 -0.56,1.51 0,0.73 0.22,1.27 0.66,1.64 0.44,0.37 1.11,0.55 2.01,0.55 0.75,0 1.43,-0.14 2.05,-0.44 0.62,-0.29 1.19,-0.64 1.72,-1.05"
         id="path14"
         style="fill:#009ee2" />
      <path
         class="cls-2"
         d="m 361.36,274.33 h -2.13 v -7.21 c 0,-0.58 -0.04,-1.13 -0.1,-1.64 -0.07,-0.51 -0.19,-0.91 -0.37,-1.2 -0.19,-0.32 -0.46,-0.55 -0.82,-0.71 -0.36,-0.16 -0.81,-0.23 -1.38,-0.23 -0.57,0 -1.19,0.14 -1.82,0.43 -0.64,0.28 -1.24,0.65 -1.82,1.1 v 9.45 h -2.13 v -12.66 h 2.13 v 1.4 c 0.66,-0.55 1.35,-0.98 2.06,-1.29 0.71,-0.31 1.44,-0.46 2.19,-0.46 1.37,0 2.41,0.41 3.13,1.23 0.72,0.82 1.08,2.01 1.08,3.56 v 8.21 z"
         id="path15"
         style="fill:#009ee2" />
      <path
         class="cls-2"
         d="m 374.51,270.69 c 0,1.16 -0.48,2.1 -1.43,2.85 -0.95,0.74 -2.26,1.11 -3.91,1.11 -0.94,0 -1.8,-0.11 -2.58,-0.33 -0.78,-0.22 -1.44,-0.47 -1.97,-0.73 v -2.39 h 0.11 c 0.67,0.5 1.42,0.91 2.24,1.21 0.82,0.3 1.61,0.45 2.37,0.45 0.94,0 1.67,-0.15 2.2,-0.45 0.53,-0.3 0.8,-0.78 0.8,-1.43 0,-0.5 -0.15,-0.88 -0.43,-1.13 -0.28,-0.26 -0.84,-0.47 -1.65,-0.66 -0.3,-0.07 -0.7,-0.15 -1.18,-0.24 -0.48,-0.09 -0.93,-0.19 -1.33,-0.3 -1.11,-0.3 -1.9,-0.73 -2.36,-1.3 -0.47,-0.57 -0.7,-1.27 -0.7,-2.1 0,-0.52 0.11,-1.01 0.32,-1.47 0.22,-0.46 0.54,-0.87 0.98,-1.24 0.42,-0.36 0.96,-0.64 1.62,-0.84 0.65,-0.21 1.38,-0.31 2.19,-0.31 0.75,0 1.52,0.09 2.29,0.28 0.78,0.18 1.42,0.41 1.93,0.67 v 2.28 h -0.11 c -0.54,-0.4 -1.21,-0.74 -1.98,-1.01 -0.78,-0.28 -1.54,-0.41 -2.29,-0.41 -0.75,0 -1.43,0.15 -1.97,0.45 -0.53,0.3 -0.8,0.74 -0.8,1.33 0,0.52 0.16,0.91 0.49,1.18 0.32,0.26 0.83,0.48 1.54,0.65 0.39,0.09 0.83,0.18 1.32,0.27 0.49,0.09 0.89,0.17 1.22,0.25 0.99,0.23 1.75,0.62 2.29,1.17 0.54,0.56 0.8,1.3 0.8,2.22"
         id="path16"
         style="fill:#009ee2" />
      <rect
         class="cls-2"
         x="377.57999"
         y="256.70001"
         width="2.1300001"
         height="17.629999"
         id="rect16"
         style="fill:#009ee2" />
      <path
         class="cls-2"
         d="m 393.76,274.34 h -2.12 v -1.35 c -0.19,0.13 -0.44,0.31 -0.76,0.54 -0.32,0.23 -0.63,0.41 -0.93,0.55 -0.36,0.17 -0.76,0.32 -1.23,0.44 -0.46,0.12 -1,0.17 -1.62,0.17 -1.14,0 -2.11,-0.38 -2.9,-1.13 -0.79,-0.75 -1.19,-1.72 -1.19,-2.89 0,-0.96 0.2,-1.74 0.62,-2.33 0.41,-0.59 1,-1.06 1.76,-1.4 0.77,-0.34 1.7,-0.57 2.78,-0.69 1.08,-0.12 2.24,-0.21 3.48,-0.27 v -0.33 c 0,-0.49 -0.09,-0.88 -0.25,-1.2 -0.17,-0.32 -0.41,-0.57 -0.73,-0.75 -0.3,-0.17 -0.67,-0.29 -1.09,-0.35 -0.42,-0.06 -0.86,-0.09 -1.32,-0.09 -0.56,0 -1.18,0.07 -1.87,0.22 -0.69,0.15 -1.4,0.36 -2.13,0.64 h -0.11 v -2.16 c 0.42,-0.11 1.02,-0.24 1.8,-0.37 0.79,-0.14 1.56,-0.2 2.32,-0.2 0.89,0 1.67,0.07 2.33,0.22 0.66,0.15 1.23,0.4 1.72,0.75 0.48,0.35 0.84,0.8 1.09,1.35 0.25,0.55 0.37,1.24 0.37,2.05 v 8.59 z m -2.12,-3.12 v -3.52 c -0.65,0.04 -1.42,0.09 -2.29,0.17 -0.88,0.08 -1.58,0.19 -2.09,0.33 -0.61,0.17 -1.11,0.44 -1.49,0.81 -0.38,0.37 -0.56,0.87 -0.56,1.51 0,0.73 0.22,1.27 0.66,1.64 0.44,0.37 1.11,0.55 2.01,0.55 0.75,0 1.43,-0.14 2.05,-0.44 0.62,-0.29 1.19,-0.64 1.72,-1.05"
         id="path17"
         style="fill:#009ee2" />
      <path
         class="cls-2"
         d="m 404.43,274.22 c -0.4,0.1 -0.84,0.19 -1.31,0.26 -0.47,0.07 -0.89,0.1 -1.26,0.1 -1.29,0 -2.27,-0.35 -2.95,-1.04 -0.67,-0.69 -1.01,-1.81 -1.01,-3.34 v -6.73 h -1.44 v -1.79 h 1.44 v -3.64 h 2.13 v 3.64 h 4.4 v 1.79 h -4.4 v 5.77 c 0,0.67 0.01,1.19 0.05,1.56 0.03,0.37 0.14,0.72 0.32,1.05 0.17,0.3 0.39,0.52 0.69,0.66 0.29,0.14 0.73,0.21 1.33,0.21 0.35,0 0.71,-0.05 1.09,-0.15 0.38,-0.1 0.65,-0.19 0.82,-0.25 h 0.11 v 1.91 z"
         id="path18"
         style="fill:#009ee2" />
      <path
         class="cls-2"
         d="m 409.29,259.56 h -2.4 v -2.21 h 2.4 z m -0.13,14.77 h -2.13 v -12.66 h 2.13 z"
         id="path19"
         style="fill:#009ee2" />
      <path
         class="cls-2"
         d="m 424.16,268.01 c 0,2.06 -0.53,3.69 -1.59,4.88 -1.06,1.19 -2.47,1.79 -4.25,1.79 -1.78,0 -3.21,-0.6 -4.27,-1.79 -1.05,-1.19 -1.58,-2.82 -1.58,-4.88 0,-2.06 0.53,-3.69 1.58,-4.89 1.05,-1.2 2.48,-1.8 4.27,-1.8 1.79,0 3.19,0.6 4.25,1.8 1.06,1.2 1.59,2.83 1.59,4.89 m -2.2,0 c 0,-1.64 -0.32,-2.86 -0.96,-3.65 -0.64,-0.8 -1.53,-1.2 -2.67,-1.2 -1.14,0 -2.05,0.4 -2.69,1.2 -0.64,0.8 -0.96,2.01 -0.96,3.65 0,1.64 0.32,2.79 0.96,3.61 0.64,0.82 1.54,1.23 2.69,1.23 1.15,0 2.02,-0.41 2.67,-1.22 0.64,-0.81 0.97,-2.02 0.97,-3.62"
         id="path20"
         style="fill:#009ee2" />
      <path
         class="cls-2"
         d="m 438.04,274.33 h -2.13 v -7.21 c 0,-0.58 -0.04,-1.13 -0.1,-1.64 -0.07,-0.51 -0.19,-0.91 -0.38,-1.2 -0.19,-0.32 -0.46,-0.55 -0.81,-0.71 -0.36,-0.16 -0.81,-0.23 -1.38,-0.23 -0.57,0 -1.19,0.14 -1.82,0.43 -0.64,0.28 -1.24,0.65 -1.82,1.1 v 9.45 h -2.13 v -12.66 h 2.13 v 1.4 c 0.66,-0.55 1.35,-0.98 2.06,-1.29 0.71,-0.31 1.44,-0.46 2.19,-0.46 1.37,0 2.41,0.41 3.13,1.23 0.72,0.82 1.08,2.01 1.08,3.56 v 8.21 z"
         id="path21"
         style="fill:#009ee2" />
      <path
         class="cls-2"
         d="m 451.98,274.34 h -2.12 v -1.35 c -0.19,0.13 -0.44,0.31 -0.77,0.54 -0.32,0.23 -0.63,0.41 -0.93,0.55 -0.36,0.17 -0.76,0.32 -1.22,0.44 -0.46,0.12 -1,0.17 -1.62,0.17 -1.14,0 -2.11,-0.38 -2.9,-1.13 -0.79,-0.75 -1.19,-1.72 -1.19,-2.89 0,-0.96 0.2,-1.74 0.61,-2.33 0.41,-0.59 1,-1.06 1.76,-1.4 0.77,-0.34 1.69,-0.57 2.78,-0.69 1.08,-0.12 2.24,-0.21 3.48,-0.27 v -0.33 c 0,-0.49 -0.09,-0.88 -0.25,-1.2 -0.17,-0.32 -0.41,-0.57 -0.73,-0.75 -0.3,-0.17 -0.67,-0.29 -1.09,-0.35 -0.42,-0.06 -0.86,-0.09 -1.32,-0.09 -0.56,0 -1.18,0.07 -1.87,0.22 -0.69,0.15 -1.4,0.36 -2.13,0.64 h -0.11 v -2.16 c 0.42,-0.11 1.02,-0.24 1.8,-0.37 0.79,-0.14 1.56,-0.2 2.32,-0.2 0.89,0 1.67,0.07 2.33,0.22 0.66,0.15 1.23,0.4 1.72,0.75 0.47,0.35 0.84,0.8 1.09,1.35 0.25,0.55 0.38,1.24 0.38,2.05 v 8.59 z m -2.12,-3.12 v -3.52 c -0.65,0.04 -1.42,0.09 -2.3,0.17 -0.88,0.08 -1.57,0.19 -2.09,0.33 -0.61,0.17 -1.11,0.44 -1.49,0.81 -0.38,0.37 -0.56,0.87 -0.56,1.51 0,0.73 0.22,1.27 0.66,1.64 0.44,0.37 1.11,0.55 2.01,0.55 0.75,0 1.43,-0.14 2.05,-0.44 0.62,-0.29 1.19,-0.64 1.72,-1.05"
         id="path22"
         style="fill:#009ee2" />
      <rect
         class="cls-2"
         x="456.10001"
         y="256.70001"
         width="2.1300001"
         height="17.629999"
         id="rect22"
         style="fill:#009ee2" />
      <polygon
         class="cls-2"
         points="477.53,269.69 472.87,259.8 472.87,274.33 470.77,274.33 470.77,257.46 473.83,257.46 478.33,266.86 482.68,257.46 485.8,257.46 485.8,274.33 483.56,274.33 483.56,259.8 478.87,269.69 "
         id="polygon22"
         style="fill:#009ee2" />
      <path
         class="cls-2"
         d="m 500.76,268.23 h -9.33 c 0,0.78 0.12,1.46 0.35,2.03 0.24,0.58 0.56,1.05 0.96,1.42 0.39,0.36 0.86,0.63 1.4,0.82 0.54,0.18 1.14,0.27 1.79,0.27 0.86,0 1.73,-0.17 2.6,-0.52 0.87,-0.34 1.49,-0.68 1.86,-1.01 h 0.11 v 2.32 c -0.72,0.3 -1.45,0.56 -2.2,0.76 -0.75,0.2 -1.53,0.31 -2.36,0.31 -2.1,0 -3.74,-0.57 -4.92,-1.71 -1.18,-1.14 -1.77,-2.75 -1.77,-4.84 0,-2.09 0.56,-3.71 1.69,-4.93 1.13,-1.22 2.62,-1.83 4.46,-1.83 1.71,0 3.02,0.5 3.95,1.5 0.93,1 1.39,2.41 1.39,4.25 v 1.16 z m -2.08,-1.63 c 0,-1.12 -0.29,-1.98 -0.85,-2.6 -0.55,-0.61 -1.4,-0.92 -2.53,-0.92 -1.13,0 -2.05,0.34 -2.73,1.01 -0.68,0.67 -1.06,1.51 -1.15,2.51 h 7.25 z"
         id="path23"
         style="fill:#009ee2" />
      <path
         class="cls-2"
         d="m 514.25,274.34 h -2.13 v -1.33 c -0.61,0.53 -1.25,0.94 -1.92,1.24 -0.66,0.29 -1.39,0.44 -2.16,0.44 -1.51,0 -2.71,-0.58 -3.6,-1.74 -0.89,-1.16 -1.33,-2.78 -1.33,-4.84 0,-1.07 0.16,-2.03 0.46,-2.87 0.31,-0.84 0.72,-1.55 1.24,-2.14 0.51,-0.57 1.11,-1.01 1.8,-1.32 0.68,-0.3 1.39,-0.45 2.12,-0.45 0.66,0 1.25,0.07 1.77,0.21 0.51,0.14 1.05,0.36 1.62,0.65 v -5.48 h 2.13 z m -2.13,-3.12 v -7.26 c -0.57,-0.26 -1.09,-0.44 -1.54,-0.53 -0.45,-0.1 -0.95,-0.15 -1.49,-0.15 -1.19,0 -2.12,0.42 -2.79,1.25 -0.67,0.83 -1,2.01 -1,3.53 0,1.52 0.26,2.65 0.77,3.43 0.51,0.78 1.34,1.17 2.47,1.17 0.6,0 1.22,-0.13 1.84,-0.4 0.62,-0.27 1.2,-0.61 1.73,-1.04"
         id="path24"
         style="fill:#009ee2" />
      <path
         class="cls-2"
         d="m 520.73,259.56 h -2.4 v -2.21 h 2.4 z m -0.13,14.77 h -2.13 v -12.66 h 2.13 z"
         id="path25"
         style="fill:#009ee2" />
      <path
         class="cls-2"
         d="m 534.17,273.54 c -0.71,0.34 -1.38,0.6 -2.02,0.79 -0.64,0.19 -1.32,0.28 -2.03,0.28 -0.91,0 -1.75,-0.13 -2.52,-0.4 -0.76,-0.27 -1.41,-0.67 -1.96,-1.22 -0.55,-0.54 -0.98,-1.23 -1.28,-2.06 -0.3,-0.83 -0.45,-1.8 -0.45,-2.91 0,-2.07 0.57,-3.69 1.71,-4.87 1.13,-1.18 2.64,-1.77 4.5,-1.77 0.72,0 1.44,0.1 2.14,0.31 0.7,0.2 1.34,0.45 1.92,0.75 v 2.37 h -0.11 c -0.65,-0.51 -1.32,-0.9 -2.01,-1.17 -0.69,-0.27 -1.37,-0.41 -2.02,-0.41 -1.21,0 -2.16,0.41 -2.86,1.22 -0.7,0.81 -1.05,2 -1.05,3.57 0,1.57 0.34,2.7 1.03,3.52 0.68,0.82 1.64,1.23 2.88,1.23 0.43,0 0.87,-0.06 1.31,-0.17 0.45,-0.11 0.85,-0.26 1.2,-0.44 0.31,-0.16 0.6,-0.33 0.87,-0.5 0.27,-0.18 0.49,-0.33 0.64,-0.46 h 0.11 v 2.35 z"
         id="path26"
         style="fill:#009ee2" />
      <path
         class="cls-2"
         d="m 539.19,259.56 h -2.4 v -2.21 h 2.4 z m -0.13,14.77 h -2.13 v -12.66 h 2.13 z"
         id="path27"
         style="fill:#009ee2" />
      <path
         class="cls-2"
         d="m 553.85,274.33 h -2.13 v -7.21 c 0,-0.58 -0.04,-1.13 -0.1,-1.64 -0.07,-0.51 -0.19,-0.91 -0.38,-1.2 -0.19,-0.32 -0.46,-0.55 -0.81,-0.71 -0.36,-0.16 -0.81,-0.23 -1.38,-0.23 -0.57,0 -1.19,0.14 -1.82,0.43 -0.64,0.28 -1.24,0.65 -1.82,1.1 v 9.45 h -2.13 v -12.66 h 2.13 v 1.4 c 0.66,-0.55 1.35,-0.98 2.06,-1.29 0.71,-0.31 1.44,-0.46 2.19,-0.46 1.37,0 2.41,0.41 3.13,1.23 0.72,0.82 1.08,2.01 1.08,3.56 v 8.21 z"
         id="path28"
         style="fill:#009ee2" />
      <path
         class="cls-2"
         d="m 568.55,268.23 h -9.33 c 0,0.78 0.12,1.46 0.35,2.03 0.24,0.58 0.56,1.05 0.96,1.42 0.39,0.36 0.86,0.63 1.4,0.82 0.54,0.18 1.14,0.27 1.79,0.27 0.86,0 1.73,-0.17 2.6,-0.52 0.87,-0.34 1.49,-0.68 1.86,-1.01 h 0.11 v 2.32 c -0.72,0.3 -1.45,0.56 -2.2,0.76 -0.75,0.2 -1.53,0.31 -2.36,0.31 -2.1,0 -3.74,-0.57 -4.92,-1.71 -1.18,-1.14 -1.77,-2.75 -1.77,-4.84 0,-2.09 0.56,-3.71 1.69,-4.93 1.13,-1.22 2.62,-1.83 4.46,-1.83 1.71,0 3.02,0.5 3.95,1.5 0.93,1 1.39,2.41 1.39,4.25 v 1.16 z m -2.07,-1.63 c 0,-1.12 -0.29,-1.98 -0.85,-2.6 -0.55,-0.61 -1.4,-0.92 -2.53,-0.92 -1.13,0 -2.05,0.34 -2.73,1.01 -0.68,0.67 -1.06,1.51 -1.15,2.51 h 7.25 z"
         id="path29"
         style="fill:#009ee2" />
      <line
         class="cls-3"
         y1="230.89"
         x2="159"
         y2="230.89"
         id="line29"
         style="fill:none;stroke:#009ee2;stroke-width:2px;stroke-miterlimit:10"
         x1="0" />
      <line
         class="cls-3"
         x1="618.12"
         y1="230.89"
         x2="777.13"
         y2="230.89"
         id="line30"
         style="fill:none;stroke:#009ee2;stroke-width:2px;stroke-miterlimit:10" />
    </g>
  </g>
</svg>
