<?xml version="1.0" encoding="UTF-8"?><svg id="Layer_1" xmlns="http://www.w3.org/2000/svg" viewBox="0 0 777.13 278.76"><defs><style>.cls-1{fill:#ff3131;}.cls-2{fill:#009ee2;}.cls-3{fill:none;stroke:#009ee2;stroke-miterlimit:10;stroke-width:2px;}</style></defs><path class="cls-1" d="M44.27,134.4h-20.96c-2.06,0-3.98-1.11-5-2.89l-10.48-18.16c-1.03-1.78-1.03-4,0-5.78l10.48-18.16c1.03-1.78,2.95-2.89,5-2.89h20.96c2.06,0,3.98,1.11,5.01,2.89l10.48,18.16c1.03,1.78,1.03,4,0,5.78l-10.48,18.16c-1.03,1.78-2.95,2.89-5.01,2.89"/><path class="cls-2" d="M90.62,83.03h-34.96c-3.43,0-6.63-1.85-8.34-4.82l-17.48-30.27c-1.72-2.97-1.72-6.67,0-9.64l17.48-30.27c1.72-2.97,4.91-4.82,8.34-4.82h34.96c3.43,0,6.63,1.85,8.35,4.82l17.48,30.27c1.72,2.97,1.72,6.67,0,9.64l-17.48,30.27c-1.72,2.97-4.91,4.82-8.35,4.82"/><path class="cls-1" d="M147.2,102.88c7.74,3.96,19.63,7.93,31.9,7.93,13.21,0,20.2-5.48,20.2-13.78s-6.04-12.46-21.33-17.93c-21.14-7.37-34.92-19.07-34.92-37.57,0-21.71,18.12-38.32,48.14-38.32,14.35,0,24.92,3.02,32.47,6.42l-6.42,23.22c-5.1-2.45-14.16-6.04-26.62-6.04s-18.5,5.66-18.5,12.27c0,8.12,7.17,11.7,23.6,17.93,22.46,8.31,33.03,20.01,33.03,37.94,0,21.33-16.42,39.45-51.34,39.45-14.53,0-28.88-3.77-36.05-7.74l5.85-23.79Z"/><path class="cls-1" d="M330.12,102.88c0,12.08.38,21.9.75,29.64h-24.92l-1.32-13.03h-.56c-3.59,5.66-12.27,15.1-28.88,15.1-18.69,0-32.47-11.7-32.47-40.21v-54.18h28.88v49.64c0,13.41,4.34,21.52,14.35,21.52,7.93,0,12.46-5.47,14.35-10,.75-1.7.94-3.96.94-6.23v-54.93h28.89v62.67Z"/><path class="cls-1" d="M349.04,70.6c0-13.59-.38-22.46-.76-30.39h24.73l.94,16.99h.76c4.72-13.4,16.04-19.06,24.91-19.06,2.65,0,3.97,0,6.04.38v26.99c-2.07-.38-4.53-.75-7.74-.75-10.57,0-17.75,5.66-19.63,14.53-.38,1.89-.57,4.15-.57,6.42v46.81h-28.69v-61.92Z"/><path class="cls-1" d="M449.58,40.21l12.46,42.85c2.26,7.74,3.96,15.1,5.28,22.46h.56c1.51-7.55,3.02-14.53,5.1-22.46l11.89-42.85h30.2l-34.35,92.31h-28.69l-33.6-92.31h31.15Z"/><path class="cls-2" d="M530.17,102.88c7.74,3.96,19.63,7.93,31.9,7.93,13.21,0,20.2-5.48,20.2-13.78s-6.04-12.46-21.33-17.93c-21.14-7.37-34.92-19.07-34.92-37.57,0-21.71,18.12-38.32,48.14-38.32,14.34,0,24.91,3.02,32.46,6.42l-6.42,23.22c-5.1-2.45-14.16-6.04-26.62-6.04s-18.5,5.66-18.5,12.27c0,8.12,7.17,11.7,23.59,17.93,22.46,8.31,33.04,20.01,33.04,37.94,0,21.33-16.42,39.45-51.35,39.45-14.53,0-28.88-3.77-36.05-7.74l5.85-23.79Z"/><rect class="cls-2" x="630.21" y="40.21" width="28.69" height="92.31"/><rect class="cls-2" x="630.21" width="28.69" height="27"/><path class="cls-2" d="M770.08,40.21c-.38,5.85-.76,13.59-.76,27.37v51.53c0,17.74-3.59,32.28-13.97,41.53-10.19,8.68-23.97,11.32-37.56,11.32-12.08,0-24.91-2.45-33.22-7.17l5.66-21.71c5.85,3.4,16.05,6.99,26.81,6.99,13.59,0,23.97-7.36,23.97-24.35v-6.04h-.38c-5.47,7.74-14.35,12.08-24.92,12.08-22.84,0-39.07-18.5-39.07-45.11,0-29.64,19.25-48.51,41.91-48.51,12.65,0,20.58,5.47,25.29,13.02h.38l.94-10.95h24.92ZM740.63,77.77c0-1.89-.19-3.77-.56-5.28-2.08-7.55-7.55-12.65-15.48-12.65-10.38,0-18.88,9.44-18.88,26.24,0,13.78,6.8,24.54,18.88,24.54,7.36,0,13.21-4.91,15.1-11.7.76-2.08.94-5.1.94-7.55v-13.59Z"/><path class="cls-2" d="M286.73,204.77l-30.74-17.74c-1.72-.99-3.64-1.49-5.56-1.49s-3.84.5-5.56,1.49l-30.74,17.74c-3.44,1.99-5.56,5.66-5.56,9.63v35.5c0,3.97,2.12,7.64,5.56,9.63l30.74,17.75c1.72.99,3.64,1.49,5.56,1.49s3.84-.5,5.56-1.49l30.74-17.75c3.44-1.99,5.56-5.66,5.56-9.63v-35.5c0-3.97-2.12-7.64-5.56-9.63M289.6,214.4v3.77c-.43-.67-.91-1.3-1.48-1.88l-18.02-18.02,15.29,8.83c2.6,1.5,4.21,4.3,4.21,7.3M274.44,262.12l-4.59,1.23c1.22-.9,2.27-2.04,3.06-3.4l12.09-20.94-4.6,17.14c-.77,2.9-3.06,5.18-5.96,5.96M236.48,267.93l-3.36-3.36c1.39.61,2.9.95,4.47.95h24.18l-17.15,4.6c-.71.19-1.45.29-2.18.29-2.25,0-4.37-.88-5.96-2.47M226.42,202.17l4.6-1.23c-1.22.9-2.27,2.04-3.06,3.4l-12.09,20.94,4.59-17.14c.78-2.9,3.06-5.18,5.96-5.96M264.38,196.36l3.36,3.36c-1.39-.61-2.9-.95-4.47-.95h-24.18l17.15-4.59c.71-.19,1.44-.29,2.18-.29,2.25,0,4.37.88,5.96,2.47M263.28,261.47h-25.69c-2.52,0-4.87-1.36-6.13-3.54l-12.84-22.25c-1.26-2.19-1.26-4.9,0-7.08l12.84-22.25c1.26-2.18,3.61-3.54,6.13-3.54h25.69c2.52,0,4.87,1.36,6.13,3.54l12.85,22.25c1.26,2.19,1.26,4.9,0,7.08l-12.85,22.25c-1.26,2.18-3.61,3.54-6.13,3.54M213.7,233.36c.17,1.51.63,2.99,1.41,4.35l12.09,20.94-12.55-12.55c-2.12-2.12-2.96-5.24-2.18-8.14l1.23-4.6ZM287.16,230.93c-.17-1.51-.63-2.99-1.41-4.35l-12.09-20.94,12.55,12.55c2.13,2.12,2.96,5.24,2.18,8.14l-1.23,4.6ZM246.22,189.35c1.28-.74,2.74-1.13,4.22-1.13s2.93.39,4.21,1.13l3.27,1.89c-.79.04-1.58.14-2.37.35l-24.61,6.59,15.29-8.83ZM215.48,207.1l3.27-1.88c-.37.7-.68,1.44-.89,2.22l-6.6,24.61v-17.65c0-3,1.62-5.8,4.22-7.3M211.27,249.89v-3.77c.43.67.91,1.3,1.49,1.88l18.02,18.02-15.29-8.83c-2.6-1.5-4.22-4.3-4.22-7.3M254.65,274.94c-1.28.74-2.74,1.13-4.21,1.13s-2.94-.39-4.22-1.13l-3.26-1.89c.79-.03,1.58-.14,2.37-.35l24.61-6.59-15.29,8.83ZM285.38,257.19l-3.27,1.89c.36-.7.67-1.44.88-2.22l6.6-24.61v17.65c0,3-1.61,5.8-4.21,7.3"/><polygon class="cls-2" points="313.22 196.17 323.21 196.17 323.21 217.16 343.21 217.16 343.21 196.17 353.21 196.17 353.21 246.01 343.21 246.01 343.21 225.02 323.21 225.02 323.21 246.01 313.22 246.01 313.22 196.17"/><polygon class="cls-2" points="409.03 196.17 438.45 196.17 438.45 204.02 419.03 204.02 419.03 217.16 436.33 217.16 436.33 225.02 419.03 225.02 419.03 238.15 438.59 238.15 438.59 246.01 409.03 246.01 409.03 196.17"/><polygon class="cls-2" points="447.8 196.31 463.8 196.31 475.66 234.09 475.79 234.09 487.65 196.31 503.65 196.31 503.65 246.15 494.07 246.15 494.07 205.02 493.94 205.02 480.51 246.15 470.94 246.15 457.51 205.02 457.37 205.17 457.37 246.15 447.8 246.15 447.8 196.31"/><polygon class="cls-2" points="512.71 196.17 528.7 196.17 540.56 233.94 540.7 233.94 552.55 196.17 568.55 196.17 568.55 246.01 558.98 246.01 558.98 204.88 558.84 204.88 545.41 246.01 535.84 246.01 522.42 204.88 522.28 205.02 522.28 246.01 512.71 246.01 512.71 196.17"/><path class="cls-2" d="M399.82,237.1c-2.44,1.13-6.82,1.91-10.57,1.91-10.64,0-16.93-7.64-16.93-17.78s6.43-18.07,16.71-18.07c3.57,0,7,.5,10.78,2.64v-.04s0-8.64,0-8.64c-3.49-1.24-7.49-1.82-10.57-1.82-16.93,0-27.35,9.57-27.35,26.63s11.21,24.92,27.35,24.92c3.52,0,7.15-.63,10.57-1.4v-8.37Z"/><polygon class="cls-2" points="327.52 259.46 321.49 259.46 321.49 274.33 319.25 274.33 319.25 259.46 313.22 259.46 313.22 257.46 327.52 257.46 327.52 259.46"/><path class="cls-2" d="M335.25,264h-.11c-.32-.08-.62-.13-.92-.16s-.65-.05-1.06-.05c-.66,0-1.29.14-1.9.44-.61.29-1.2.67-1.77,1.13v8.99h-2.13v-12.66h2.13v1.87c.85-.68,1.59-1.16,2.24-1.44.65-.28,1.31-.42,1.98-.42.37,0,.64,0,.81.03.16.02.41.06.75.11v2.19Z"/><path class="cls-2" d="M346.68,274.34h-2.12v-1.35c-.19.13-.44.31-.77.54-.32.23-.63.41-.93.55-.36.17-.76.32-1.23.44-.46.12-1,.17-1.62.17-1.14,0-2.11-.38-2.9-1.13-.79-.75-1.19-1.72-1.19-2.89,0-.96.2-1.74.62-2.33.41-.59,1-1.06,1.76-1.4.77-.34,1.7-.57,2.78-.69,1.08-.12,2.24-.21,3.48-.27v-.33c0-.49-.09-.88-.25-1.2-.17-.32-.41-.57-.73-.75-.3-.17-.67-.29-1.09-.35-.42-.06-.86-.09-1.32-.09-.56,0-1.18.07-1.87.22-.69.15-1.4.36-2.13.64h-.11v-2.16c.42-.11,1.02-.24,1.8-.37.79-.14,1.56-.2,2.32-.2.89,0,1.67.07,2.33.22.66.15,1.23.4,1.72.75.48.35.84.8,1.09,1.35.25.55.38,1.24.38,2.05v8.59ZM344.56,271.22v-3.52c-.65.04-1.42.09-2.3.17-.88.08-1.57.19-2.09.33-.61.17-1.11.44-1.49.81-.38.37-.56.87-.56,1.51,0,.73.22,1.27.66,1.64.44.37,1.11.55,2.01.55.75,0,1.43-.14,2.05-.44.62-.29,1.19-.64,1.72-1.05"/><path class="cls-2" d="M361.36,274.33h-2.13v-7.21c0-.58-.04-1.13-.1-1.64-.07-.51-.19-.91-.37-1.2-.19-.32-.46-.55-.82-.71-.36-.16-.81-.23-1.38-.23s-1.19.14-1.82.43c-.64.28-1.24.65-1.82,1.1v9.45h-2.13v-12.66h2.13v1.4c.66-.55,1.35-.98,2.06-1.29.71-.31,1.44-.46,2.19-.46,1.37,0,2.41.41,3.13,1.23.72.82,1.08,2.01,1.08,3.56v8.21Z"/><path class="cls-2" d="M374.51,270.69c0,1.16-.48,2.1-1.43,2.85-.95.74-2.26,1.11-3.91,1.11-.94,0-1.8-.11-2.58-.33-.78-.22-1.44-.47-1.97-.73v-2.39h.11c.67.5,1.42.91,2.24,1.21.82.3,1.61.45,2.37.45.94,0,1.67-.15,2.2-.45.53-.3.8-.78.8-1.43,0-.5-.15-.88-.43-1.13-.28-.26-.84-.47-1.65-.66-.3-.07-.7-.15-1.18-.24s-.93-.19-1.33-.3c-1.11-.3-1.9-.73-2.36-1.3-.47-.57-.7-1.27-.7-2.1,0-.52.11-1.01.32-1.47.22-.46.54-.87.98-1.24.42-.36.96-.64,1.62-.84.65-.21,1.38-.31,2.19-.31.75,0,1.52.09,2.29.28.78.18,1.42.41,1.93.67v2.28h-.11c-.54-.4-1.21-.74-1.98-1.01-.78-.28-1.54-.41-2.29-.41s-1.43.15-1.97.45c-.53.3-.8.74-.8,1.33,0,.52.16.91.49,1.18.32.26.83.48,1.54.65.39.09.83.18,1.32.27.49.09.89.17,1.22.25.99.23,1.75.62,2.29,1.17.54.56.8,1.3.8,2.22"/><rect class="cls-2" x="377.58" y="256.7" width="2.13" height="17.63"/><path class="cls-2" d="M393.76,274.34h-2.12v-1.35c-.19.13-.44.31-.76.54-.32.23-.63.41-.93.55-.36.17-.76.32-1.23.44-.46.12-1,.17-1.62.17-1.14,0-2.11-.38-2.9-1.13-.79-.75-1.19-1.72-1.19-2.89,0-.96.2-1.74.62-2.33.41-.59,1-1.06,1.76-1.4.77-.34,1.7-.57,2.78-.69,1.08-.12,2.24-.21,3.48-.27v-.33c0-.49-.09-.88-.25-1.2-.17-.32-.41-.57-.73-.75-.3-.17-.67-.29-1.09-.35-.42-.06-.86-.09-1.32-.09-.56,0-1.18.07-1.87.22-.69.15-1.4.36-2.13.64h-.11v-2.16c.42-.11,1.02-.24,1.8-.37.79-.14,1.56-.2,2.32-.2.89,0,1.67.07,2.33.22.66.15,1.23.4,1.72.75.48.35.84.8,1.09,1.35.25.55.37,1.24.37,2.05v8.59ZM391.64,271.22v-3.52c-.65.04-1.42.09-2.29.17-.88.08-1.58.19-2.09.33-.61.17-1.11.44-1.49.81-.38.37-.56.87-.56,1.51,0,.73.22,1.27.66,1.64.44.37,1.11.55,2.01.55.75,0,1.43-.14,2.05-.44.62-.29,1.19-.64,1.72-1.05"/><path class="cls-2" d="M404.43,274.22c-.4.1-.84.19-1.31.26-.47.07-.89.1-1.26.1-1.29,0-2.27-.35-2.95-1.04-.67-.69-1.01-1.81-1.01-3.34v-6.73h-1.44v-1.79h1.44v-3.64h2.13v3.64h4.4v1.79h-4.4v5.77c0,.67.01,1.19.05,1.56.03.37.14.72.32,1.05.17.3.39.52.69.66.29.14.73.21,1.33.21.35,0,.71-.05,1.09-.15.38-.1.65-.19.82-.25h.11v1.91Z"/><path class="cls-2" d="M409.29,259.56h-2.4v-2.21h2.4v2.21ZM409.16,274.33h-2.13v-12.66h2.13v12.66Z"/><path class="cls-2" d="M424.16,268.01c0,2.06-.53,3.69-1.59,4.88-1.06,1.19-2.47,1.79-4.25,1.79s-3.21-.6-4.27-1.79c-1.05-1.19-1.58-2.82-1.58-4.88s.53-3.69,1.58-4.89c1.05-1.2,2.48-1.8,4.27-1.8s3.19.6,4.25,1.8c1.06,1.2,1.59,2.83,1.59,4.89M421.96,268.01c0-1.64-.32-2.86-.96-3.65-.64-.8-1.53-1.2-2.67-1.2s-2.05.4-2.69,1.2c-.64.8-.96,2.01-.96,3.65s.32,2.79.96,3.61c.64.82,1.54,1.23,2.69,1.23s2.02-.41,2.67-1.22c.64-.81.97-2.02.97-3.62"/><path class="cls-2" d="M438.04,274.33h-2.13v-7.21c0-.58-.04-1.13-.1-1.64-.07-.51-.19-.91-.38-1.2-.19-.32-.46-.55-.81-.71-.36-.16-.81-.23-1.38-.23s-1.19.14-1.82.43c-.64.28-1.24.65-1.82,1.1v9.45h-2.13v-12.66h2.13v1.4c.66-.55,1.35-.98,2.06-1.29.71-.31,1.44-.46,2.19-.46,1.37,0,2.41.41,3.13,1.23.72.82,1.08,2.01,1.08,3.56v8.21Z"/><path class="cls-2" d="M451.98,274.34h-2.12v-1.35c-.19.13-.44.31-.77.54-.32.23-.63.41-.93.55-.36.17-.76.32-1.22.44-.46.12-1,.17-1.62.17-1.14,0-2.11-.38-2.9-1.13-.79-.75-1.19-1.72-1.19-2.89,0-.96.2-1.74.61-2.33.41-.59,1-1.06,1.76-1.4.77-.34,1.69-.57,2.78-.69,1.08-.12,2.24-.21,3.48-.27v-.33c0-.49-.09-.88-.25-1.2-.17-.32-.41-.57-.73-.75-.3-.17-.67-.29-1.09-.35-.42-.06-.86-.09-1.32-.09-.56,0-1.18.07-1.87.22-.69.15-1.4.36-2.13.64h-.11v-2.16c.42-.11,1.02-.24,1.8-.37.79-.14,1.56-.2,2.32-.2.89,0,1.67.07,2.33.22.66.15,1.23.4,1.72.75.47.35.84.8,1.09,1.35.25.55.38,1.24.38,2.05v8.59ZM449.86,271.22v-3.52c-.65.04-1.42.09-2.3.17-.88.08-1.57.19-2.09.33-.61.17-1.11.44-1.49.81-.38.37-.56.87-.56,1.51,0,.73.22,1.27.66,1.64.44.37,1.11.55,2.01.55.75,0,1.43-.14,2.05-.44.62-.29,1.19-.64,1.72-1.05"/><rect class="cls-2" x="456.1" y="256.7" width="2.13" height="17.63"/><polygon class="cls-2" points="485.8 274.33 483.56 274.33 483.56 259.8 478.87 269.69 477.53 269.69 472.87 259.8 472.87 274.33 470.77 274.33 470.77 257.46 473.83 257.46 478.33 266.86 482.68 257.46 485.8 257.46 485.8 274.33"/><path class="cls-2" d="M500.76,268.23h-9.33c0,.78.12,1.46.35,2.03.24.58.56,1.05.96,1.42.39.36.86.63,1.4.82.54.18,1.14.27,1.79.27.86,0,1.73-.17,2.6-.52.87-.34,1.49-.68,1.86-1.01h.11v2.32c-.72.3-1.45.56-2.2.76-.75.2-1.53.31-2.36.31-2.1,0-3.74-.57-4.92-1.71-1.18-1.14-1.77-2.75-1.77-4.84s.56-3.71,1.69-4.93c1.13-1.22,2.62-1.83,4.46-1.83,1.71,0,3.02.5,3.95,1.5.93,1,1.39,2.41,1.39,4.25v1.16ZM498.68,266.6c0-1.12-.29-1.98-.85-2.6-.55-.61-1.4-.92-2.53-.92s-2.05.34-2.73,1.01c-.68.67-1.06,1.51-1.15,2.51h7.25Z"/><path class="cls-2" d="M514.25,274.34h-2.13v-1.33c-.61.53-1.25.94-1.92,1.24-.66.29-1.39.44-2.16.44-1.51,0-2.71-.58-3.6-1.74s-1.33-2.78-1.33-4.84c0-1.07.16-2.03.46-2.87.31-.84.72-1.55,1.24-2.14.51-.57,1.11-1.01,1.8-1.32.68-.3,1.39-.45,2.12-.45.66,0,1.25.07,1.77.21.51.14,1.05.36,1.62.65v-5.48h2.13v17.63ZM512.12,271.22v-7.26c-.57-.26-1.09-.44-1.54-.53-.45-.1-.95-.15-1.49-.15-1.19,0-2.12.42-2.79,1.25-.67.83-1,2.01-1,3.53s.26,2.65.77,3.43c.51.78,1.34,1.17,2.47,1.17.6,0,1.22-.13,1.84-.4.62-.27,1.2-.61,1.73-1.04"/><path class="cls-2" d="M520.73,259.56h-2.4v-2.21h2.4v2.21ZM520.6,274.33h-2.13v-12.66h2.13v12.66Z"/><path class="cls-2" d="M534.17,273.54c-.71.34-1.38.6-2.02.79-.64.19-1.32.28-2.03.28-.91,0-1.75-.13-2.52-.4-.76-.27-1.41-.67-1.96-1.22-.55-.54-.98-1.23-1.28-2.06-.3-.83-.45-1.8-.45-2.91,0-2.07.57-3.69,1.71-4.87,1.13-1.18,2.64-1.77,4.5-1.77.72,0,1.44.1,2.14.31.7.2,1.34.45,1.92.75v2.37h-.11c-.65-.51-1.32-.9-2.01-1.17-.69-.27-1.37-.41-2.02-.41-1.21,0-2.16.41-2.86,1.22-.7.81-1.05,2-1.05,3.57s.34,2.7,1.03,3.52c.68.82,1.64,1.23,2.88,1.23.43,0,.87-.06,1.31-.17.45-.11.85-.26,1.2-.44.31-.16.6-.33.87-.5.27-.18.49-.33.64-.46h.11v2.35Z"/><path class="cls-2" d="M539.19,259.56h-2.4v-2.21h2.4v2.21ZM539.06,274.33h-2.13v-12.66h2.13v12.66Z"/><path class="cls-2" d="M553.85,274.33h-2.13v-7.21c0-.58-.04-1.13-.1-1.64-.07-.51-.19-.91-.38-1.2-.19-.32-.46-.55-.81-.71-.36-.16-.81-.23-1.38-.23s-1.19.14-1.82.43c-.64.28-1.24.65-1.82,1.1v9.45h-2.13v-12.66h2.13v1.4c.66-.55,1.35-.98,2.06-1.29.71-.31,1.44-.46,2.19-.46,1.37,0,2.41.41,3.13,1.23.72.82,1.08,2.01,1.08,3.56v8.21Z"/><path class="cls-2" d="M568.55,268.23h-9.33c0,.78.12,1.46.35,2.03.24.58.56,1.05.96,1.42.39.36.86.63,1.4.82.54.18,1.14.27,1.79.27.86,0,1.73-.17,2.6-.52.87-.34,1.49-.68,1.86-1.01h.11v2.32c-.72.3-1.45.56-2.2.76-.75.2-1.53.31-2.36.31-2.1,0-3.74-.57-4.92-1.71-1.18-1.14-1.77-2.75-1.77-4.84s.56-3.71,1.69-4.93c1.13-1.22,2.62-1.83,4.46-1.83,1.71,0,3.02.5,3.95,1.5.93,1,1.39,2.41,1.39,4.25v1.16ZM566.48,266.6c0-1.12-.29-1.98-.85-2.6-.55-.61-1.4-.92-2.53-.92s-2.05.34-2.73,1.01c-.68.67-1.06,1.51-1.15,2.51h7.25Z"/><line class="cls-3" y1="230.89" x2="159" y2="230.89"/><line class="cls-3" x1="618.12" y1="230.89" x2="777.13" y2="230.89"/></svg>